name analog
datacolumns 19
datarows 35
range 0.1815 0.1985
endheader
time	ground_force_vx	ground_force_vy	ground_force_vz	ground_force_px	ground_force_py	ground_force_pz	l_ground_force_vx	l_ground_force_vy	l_ground_force_vz	l_ground_force_px	l_ground_force_py	l_ground_force_pz	ground_torque_x	ground_torque_y	ground_torque_z	l_ground_torque_x	l_ground_torque_y	l_ground_torque_z
0.1815	-0.0	-0.0	-0.0	-0.0	-0.0	-0.0	1.8720968961715696	1.1085861921310425	-502.236572265625	-0.0	-0.0	-0.0	-0.0	-0.0	-0.0	170392.484375	-27220.19140625	-317.5256652832031
0.182	-0.0	-0.0	-0.0	-0.0	-0.0	-0.0	1.853870511054993	0.6939694285392761	-500.8758239746094	-0.0	-0.0	-0.0	-0.0	-0.0	-0.0	170209.625	-26968.751953125	-381.1095275878906
0.1825	-0.0	-0.0	-0.0	-0.0	-0.0	-0.0	1.9648370742797847	0.6977109313011169	-501.4517822265625	-0.0	-0.0	-0.0	-0.0	-0.0	-0.0	169830.21875	-27000.259765625	-327.7064514160156
0.183	-0.0	-0.0	-0.0	-0.0	-0.0	-0.0	2.08908748626709	1.0287940502166748	-500.1769409179688	-0.0	-0.0	-0.0	-0.0	-0.0	-0.0	169685.796875	-27019.75	-380.9534301757813
0.1835	-0.0	-0.0	-0.0	-0.0	-0.0	-0.0	2.023120164871216	1.1396057605743408	-499.0614013671875	-0.0	-0.0	-0.0	-0.0	-0.0	-0.0	169636.484375	-26942.763671875	-318.8152770996094
0.184	-0.0	-0.0	-0.0	-0.0	-0.0	-0.0	1.7973217964172363	1.6950368881225586	-498.36376953125	-0.0	-0.0	-0.0	-0.0	-0.0	-0.0	169462.671875	-26760.373046875	-357.1018981933594
0.1845	-0.0	-0.0	-0.0	-0.0	-0.0	-0.0	1.9600229263305664	1.7747825384140017	-499.1617431640625	-0.0	-0.0	-0.0	-0.0	-0.0	-0.0	169296.890625	-26730.408203125	-318.8515625
0.185	-0.0	-0.0	-0.0	-0.0	-0.0	-0.0	1.8949350118637085	1.95946741104126	-499.5099792480469	-0.0	-0.0	-0.0	-0.0	-0.0	-0.0	169544.8125	-26839.41796875	-327.21148681640625
0.1855	-0.0	-0.0	-0.0	-0.0	-0.0	-0.0	1.9838459491729736	2.3766231536865234	-498.9057922363281	-0.0	-0.0	-0.0	-0.0	-0.0	-0.0	169689.4375	-26961.75	-410.5741271972656
0.186	-0.0	-0.0	-0.0	-0.0	-0.0	-0.0	1.685504913330078	3.043124198913574	-498.9376831054688	-0.0	-0.0	-0.0	-0.0	-0.0	-0.0	170216.71875	-26851.388671875	-486.15032958984375
0.1865	-0.0	-0.0	-0.0	-0.0	-0.0	-0.0	1.7181177139282229	3.605601072311402	-499.4459838867188	-0.0	-0.0	-0.0	-0.0	-0.0	-0.0	170239.3125	-26944.56640625	-593.7608032226562
0.187	-0.0	-0.0	-0.0	-0.0	-0.0	-0.0	1.4598804712295532	4.005120277404785	-501.5714416503906	-0.0	-0.0	-0.0	-0.0	-0.0	-0.0	170867.046875	-27043.041015625	-534.4702758789062
0.1875	-0.0	-0.0	-0.0	-0.0	-0.0	-0.0	1.411831974983215	4.43109941482544	-501.890625	-0.0	-0.0	-0.0	-0.0	-0.0	-0.0	171294.390625	-27266.578125	-728.421630859375
0.188	-0.0	-0.0	-0.0	-0.0	-0.0	-0.0	1.234524488449097	4.463942050933838	-503.7535095214844	-0.0	-0.0	-0.0	-0.0	-0.0	-0.0	171701.046875	-27319.248046875	-764.2864990234375
0.1885	-0.0	-0.0	-0.0	-0.0	-0.0	-0.0	1.2680249214172363	4.607288837432861	-503.21380615234375	-0.0	-0.0	-0.0	-0.0	-0.0	-0.0	171656.84375	-27205.982421875	-796.4117431640625
0.189	-0.0	-0.0	-0.0	-0.0	-0.0	-0.0	0.9829768538475036	4.946014404296875	-503.797607421875	-0.0	-0.0	-0.0	-0.0	-0.0	-0.0	171963.140625	-27180.673828125	-837.4856567382812
0.1895	-0.0	-0.0	-0.0	-0.0	-0.0	-0.0	0.9139028191566468	4.531083583831787	-502.96673583984375	-0.0	-0.0	-0.0	-0.0	-0.0	-0.0	171660.5625	-27010.318359375	-942.7507934570312
0.19	-0.0	-0.0	-0.0	-0.0	-0.0	-0.0	0.7367672920227051	4.647207736968994	-501.9190673828125	-0.0	-0.0	-0.0	-0.0	-0.0	-0.0	171546.53125	-26971.3828125	-938.3026733398438
0.1905	-0.0	-0.0	-0.0	-0.0	-0.0	-0.0	0.1364438831806183	4.687775135040283	-502.6170654296875	-0.0	-0.0	-0.0	-0.0	-0.0	-0.0	171539.765625	-26883.576171875	-1036.9537353515625
0.191	-0.0	-0.0	-0.0	-0.0	-0.0	-0.0	-0.3548431396484375	4.538677215576172	-502.93988037109375	-0.0	-0.0	-0.0	-0.0	-0.0	-0.0	171416.3125	-26646.759765625	-1094.45458984375
0.1915	-0.0	-0.0	-0.0	-0.0	-0.0	-0.0	-0.3959646821022033	4.668170928955078	-501.7054138183594	-0.0	-0.0	-0.0	-0.0	-0.0	-0.0	171316.578125	-26720.341796875	-1286.2374267578125
0.192	-0.0	-0.0	-0.0	-0.0	-0.0	-0.0	-0.8459292054176331	4.728373050689697	-500.8955078125	-0.0	-0.0	-0.0	-0.0	-0.0	-0.0	171053.28125	-26414.916015625	-1188.0867919921875
0.1925	-0.0	-0.0	-0.0	-0.0	-0.0	-0.0	-0.7446837425231934	4.586516380310059	-499.8228149414063	-0.0	-0.0	-0.0	-0.0	-0.0	-0.0	170751.5625	-26405.537109375	-1110.7230224609375
0.193	-0.0	-0.0	-0.0	-0.0	-0.0	-0.0	-0.8871078491210938	4.2333831787109375	-498.9616088867188	-0.0	-0.0	-0.0	-0.0	-0.0	-0.0	170471.25	-26157.9921875	-1099.1595458984375
0.1935	-0.0	-0.0	-0.0	-0.0	-0.0	-0.0	-1.1237603425979614	3.886154174804688	-497.2387390136719	-0.0	-0.0	-0.0	-0.0	-0.0	-0.0	170062.453125	-25830.28515625	-1083.54443359375
0.194	-0.0	-0.0	-0.0	-0.0	-0.0	-0.0	-1.3779350519180298	3.4445457458496094	-497.19189453125	-0.0	-0.0	-0.0	-0.0	-0.0	-0.0	169505.8125	-25883.240234375	-1285.6121826171875
0.1945	-0.0	-0.0	-0.0	-0.0	-0.0	-0.0	-1.5552794933319092	2.831950426101685	-495.07464599609375	-0.0	-0.0	-0.0	-0.0	-0.0	-0.0	169063.140625	-25761.498046875	-1054.41015625
0.195	-0.0	-0.0	-0.0	-0.0	-0.0	-0.0	-1.685504913330078	2.978110074996948	-494.398681640625	-0.0	-0.0	-0.0	-0.0	-0.0	-0.0	169023.75	-25679.748046875	-1244.4766845703125
0.1955	-0.0	-0.0	-0.0	-0.0	-0.0	-0.0	-1.6747171878814695	3.267902374267578	-496.14447021484375	-0.0	-0.0	-0.0	-0.0	-0.0	-0.0	169110.046875	-25593.220703125	-1232.3204345703125
0.196	-0.0	-0.0	-0.0	-0.0	-0.0	-0.0	-1.450527310371399	3.1795806884765625	-497.746826171875	-0.0	-0.0	-0.0	-0.0	-0.0	-0.0	169415.109375	-25600.80859375	-1188.55126953125
0.1965	-0.0	-0.0	-0.0	-0.0	-0.0	-0.0	-1.6071261167526243	3.0548131465911865	-497.8901977539063	-0.0	-0.0	-0.0	-0.0	-0.0	-0.0	169880.359375	-25780.7109375	-1190.383544921875
0.197	-0.0	-0.0	-0.0	-0.0	-0.0	-0.0	-1.6486669778823853	3.221246719360352	-498.054931640625	-0.0	-0.0	-0.0	-0.0	-0.0	-0.0	170278.625	-25882.03125	-1294.9295654296875
0.1975	-0.0	-0.0	-0.0	-0.0	-0.0	-0.0	-1.3676996231079102	3.5843136310577397	-498.7534790039063	-0.0	-0.0	-0.0	-0.0	-0.0	-0.0	170484.40625	-25859.875	-1233.56689453125
0.198	-0.0	-0.0	-0.0	-0.0	-0.0	-0.0	-1.2419509887695312	3.6211891174316406	-500.480712890625	-0.0	-0.0	-0.0	-0.0	-0.0	-0.0	170622.625	-25821.947265625	-1158.4542236328125
0.1985	-0.0	-0.0	-0.0	-0.0	-0.0	-0.0	-1.153240203857422	3.709510803222656	-500.8489379882813	-0.0	-0.0	-0.0	-0.0	-0.0	-0.0	170951.1875	-25961.06640625	-1184.8980712890625
